<svg xmlns="http://www.w3.org/2000/svg" width="1600" height="800" viewBox="0 0 1600 800">
  <defs>
    <linearGradient id="bg" x1="0" y1="0" x2="1" y2="1">
      <stop offset="0%" stop-color="#0b1020" />
      <stop offset="55%" stop-color="#111827" />
      <stop offset="100%" stop-color="#000000" />
    </linearGradient>
    <linearGradient id="accent" x1="0" y1="0" x2="1" y2="0">
      <stop offset="0%" stop-color="#6366f1" stop-opacity="0.95" />
      <stop offset="50%" stop-color="#22c55e" stop-opacity="0.85" />
      <stop offset="100%" stop-color="#f59e0b" stop-opacity="0.85" />
    </linearGradient>
  </defs>

  <rect width="1600" height="800" fill="url(#bg)" />

  <circle cx="260" cy="140" r="220" fill="#6366f1" opacity="0.22" />
  <circle cx="1380" cy="120" r="260" fill="#22c55e" opacity="0.14" />
  <circle cx="1320" cy="720" r="300" fill="#f59e0b" opacity="0.12" />

  <rect x="120" y="120" width="1360" height="560" rx="28" fill="#0b1220" opacity="0.75" stroke="#ffffff" stroke-opacity="0.12" />

  <rect x="180" y="180" width="540" height="420" rx="22" fill="#000000" opacity="0.35" stroke="#ffffff" stroke-opacity="0.10" />
  <rect x="760" y="180" width="660" height="190" rx="22" fill="#000000" opacity="0.35" stroke="#ffffff" stroke-opacity="0.10" />
  <rect x="760" y="410" width="660" height="190" rx="22" fill="#000000" opacity="0.35" stroke="#ffffff" stroke-opacity="0.10" />

  <rect x="210" y="210" width="480" height="14" rx="7" fill="#ffffff" opacity="0.16" />
  <rect x="210" y="248" width="420" height="12" rx="6" fill="#ffffff" opacity="0.12" />
  <rect x="210" y="278" width="450" height="12" rx="6" fill="#ffffff" opacity="0.10" />

  <g opacity="0.9">
    <rect x="820" y="230" width="540" height="10" rx="5" fill="#ffffff" opacity="0.12" />
    <rect x="820" y="256" width="460" height="10" rx="5" fill="#ffffff" opacity="0.10" />
    <rect x="820" y="282" width="500" height="10" rx="5" fill="#ffffff" opacity="0.10" />
  </g>

  <rect x="820" y="470" width="540" height="12" rx="6" fill="url(#accent)" opacity="0.55" />
  <rect x="820" y="510" width="420" height="12" rx="6" fill="#ffffff" opacity="0.10" />

  <text x="180" y="735" fill="#ffffff" opacity="0.86" font-family="ui-sans-serif, system-ui, -apple-system, Segoe UI" font-size="26" font-weight="600">Dashboard Recommandation — TF-IDF + Cosine Similarity</text>
  <text x="180" y="770" fill="#ffffff" opacity="0.55" font-family="ui-sans-serif, system-ui, -apple-system, Segoe UI" font-size="18">Demo cover (SVG placeholder) — replace with real screenshot when ready</text>
</svg>
