<svg xmlns="http://www.w3.org/2000/svg" width="1600" height="800" viewBox="0 0 1600 800">
  <defs>
    <linearGradient id="bg" x1="0" y1="0" x2="1" y2="1">
      <stop offset="0%" stop-color="#0b1020" />
      <stop offset="55%" stop-color="#141027" />
      <stop offset="100%" stop-color="#000000" />
    </linearGradient>
    <linearGradient id="accent" x1="0" y1="0" x2="1" y2="0">
      <stop offset="0%" stop-color="#a78bfa" stop-opacity="0.95" />
      <stop offset="55%" stop-color="#f472b6" stop-opacity="0.85" />
      <stop offset="100%" stop-color="#60a5fa" stop-opacity="0.85" />
    </linearGradient>
  </defs>

  <rect width="1600" height="800" fill="url(#bg)" />

  <circle cx="300" cy="140" r="240" fill="#a78bfa" opacity="0.16" />
  <circle cx="1360" cy="160" r="280" fill="#f472b6" opacity="0.13" />
  <circle cx="1340" cy="720" r="320" fill="#60a5fa" opacity="0.10" />

  <rect x="120" y="120" width="1360" height="560" rx="28" fill="#0b1220" opacity="0.70" stroke="#ffffff" stroke-opacity="0.12" />

  <rect x="180" y="190" width="1240" height="86" rx="22" fill="#000000" opacity="0.35" stroke="#ffffff" stroke-opacity="0.10" />
  <rect x="180" y="300" width="1240" height="320" rx="22" fill="#000000" opacity="0.35" stroke="#ffffff" stroke-opacity="0.10" />

  <rect x="220" y="220" width="600" height="14" rx="7" fill="url(#accent)" opacity="0.55" />
  <rect x="220" y="244" width="520" height="10" rx="5" fill="#ffffff" opacity="0.10" />

  <g opacity="0.95">
    <rect x="230" y="350" width="980" height="18" rx="9" fill="#ffffff" opacity="0.10" />
    <rect x="230" y="388" width="860" height="18" rx="9" fill="#ffffff" opacity="0.08" />
    <rect x="230" y="426" width="920" height="18" rx="9" fill="#ffffff" opacity="0.08" />
    <rect x="230" y="464" width="780" height="18" rx="9" fill="#ffffff" opacity="0.08" />
  </g>

  <rect x="230" y="525" width="540" height="16" rx="8" fill="url(#accent)" opacity="0.45" />

  <text x="180" y="735" fill="#ffffff" opacity="0.86" font-family="ui-sans-serif, system-ui, -apple-system, Segoe UI" font-size="26" font-weight="600">Projet #2 — Deep Learning (NLP Sentiment)</text>
  <text x="180" y="770" fill="#ffffff" opacity="0.55" font-family="ui-sans-serif, system-ui, -apple-system, Segoe UI" font-size="18">BiLSTM • Tokenization • Production (Streamlit)</text>
</svg>
