<svg xmlns="http://www.w3.org/2000/svg" width="1600" height="800" viewBox="0 0 1600 800">
  <defs>
    <linearGradient id="bg" x1="0" y1="0" x2="1" y2="1">
      <stop offset="0%" stop-color="#07101f" />
      <stop offset="60%" stop-color="#0b1220" />
      <stop offset="100%" stop-color="#000000" />
    </linearGradient>
    <linearGradient id="accent" x1="0" y1="0" x2="1" y2="0">
      <stop offset="0%" stop-color="#60a5fa" stop-opacity="0.95" />
      <stop offset="55%" stop-color="#22c55e" stop-opacity="0.85" />
      <stop offset="100%" stop-color="#f59e0b" stop-opacity="0.85" />
    </linearGradient>
  </defs>

  <rect width="1600" height="800" fill="url(#bg)" />

  <circle cx="300" cy="160" r="250" fill="#60a5fa" opacity="0.14" />
  <circle cx="1320" cy="170" r="270" fill="#22c55e" opacity="0.12" />
  <circle cx="1340" cy="720" r="320" fill="#f59e0b" opacity="0.10" />

  <rect x="120" y="120" width="1360" height="560" rx="28" fill="#0b1220" opacity="0.72" stroke="#ffffff" stroke-opacity="0.12" />

  <rect x="180" y="190" width="1240" height="96" rx="22" fill="#000000" opacity="0.35" stroke="#ffffff" stroke-opacity="0.10" />

  <rect x="180" y="320" width="860" height="300" rx="22" fill="#000000" opacity="0.35" stroke="#ffffff" stroke-opacity="0.10" />
  <rect x="1080" y="320" width="340" height="300" rx="22" fill="#000000" opacity="0.35" stroke="#ffffff" stroke-opacity="0.10" />

  <rect x="220" y="225" width="720" height="14" rx="7" fill="url(#accent)" opacity="0.55" />
  <rect x="220" y="250" width="620" height="10" rx="5" fill="#ffffff" opacity="0.10" />

  <g opacity="0.95">
    <rect x="230" y="360" width="780" height="18" rx="9" fill="#ffffff" opacity="0.10" />
    <rect x="230" y="398" width="740" height="18" rx="9" fill="#ffffff" opacity="0.08" />
    <rect x="230" y="436" width="700" height="18" rx="9" fill="#ffffff" opacity="0.08" />
    <rect x="230" y="474" width="760" height="18" rx="9" fill="#ffffff" opacity="0.08" />
  </g>

  <rect x="1120" y="360" width="260" height="16" rx="8" fill="url(#accent)" opacity="0.45" />
  <rect x="1120" y="402" width="210" height="12" rx="6" fill="#ffffff" opacity="0.10" />
  <rect x="1120" y="432" width="235" height="12" rx="6" fill="#ffffff" opacity="0.10" />

  <text x="180" y="735" fill="#ffffff" opacity="0.86" font-family="ui-sans-serif, system-ui, -apple-system, Segoe UI" font-size="26" font-weight="600">Projet #3 — Data Engineering (ETL Airflow + Postgres)</text>
  <text x="180" y="770" fill="#ffffff" opacity="0.55" font-family="ui-sans-serif, system-ui, -apple-system, Segoe UI" font-size="18">DAGs • Docker • Warehouse • Idempotence</text>
</svg>
