<svg xmlns="http://www.w3.org/2000/svg" width="1600" height="800" viewBox="0 0 1600 800">
  <defs>
    <linearGradient id="bg" x1="0" y1="0" x2="1" y2="1">
      <stop offset="0%" stop-color="#0b1020" />
      <stop offset="55%" stop-color="#0a1224" />
      <stop offset="100%" stop-color="#000000" />
    </linearGradient>
    <linearGradient id="accent" x1="0" y1="0" x2="1" y2="0">
      <stop offset="0%" stop-color="#22c55e" stop-opacity="0.9" />
      <stop offset="50%" stop-color="#60a5fa" stop-opacity="0.9" />
      <stop offset="100%" stop-color="#a78bfa" stop-opacity="0.9" />
    </linearGradient>
  </defs>

  <rect width="1600" height="800" fill="url(#bg)" />

  <circle cx="280" cy="170" r="240" fill="#22c55e" opacity="0.16" />
  <circle cx="1320" cy="160" r="260" fill="#60a5fa" opacity="0.14" />
  <circle cx="1320" cy="720" r="320" fill="#a78bfa" opacity="0.12" />

  <rect x="120" y="120" width="1360" height="560" rx="28" fill="#0b1220" opacity="0.72" stroke="#ffffff" stroke-opacity="0.12" />

  <rect x="180" y="190" width="1240" height="76" rx="18" fill="#000000" opacity="0.35" stroke="#ffffff" stroke-opacity="0.10" />
  <rect x="180" y="290" width="760" height="330" rx="22" fill="#000000" opacity="0.35" stroke="#ffffff" stroke-opacity="0.10" />
  <rect x="980" y="290" width="440" height="330" rx="22" fill="#000000" opacity="0.35" stroke="#ffffff" stroke-opacity="0.10" />

  <rect x="220" y="220" width="720" height="14" rx="7" fill="url(#accent)" opacity="0.55" />
  <rect x="220" y="242" width="620" height="10" rx="5" fill="#ffffff" opacity="0.10" />

  <g opacity="0.95">
    <rect x="230" y="330" width="690" height="18" rx="9" fill="#ffffff" opacity="0.10" />
    <rect x="230" y="370" width="640" height="18" rx="9" fill="#ffffff" opacity="0.08" />
    <rect x="230" y="410" width="620" height="18" rx="9" fill="#ffffff" opacity="0.08" />
    <rect x="230" y="450" width="680" height="18" rx="9" fill="#ffffff" opacity="0.08" />
  </g>

  <rect x="1020" y="330" width="360" height="12" rx="6" fill="#ffffff" opacity="0.12" />
  <rect x="1020" y="356" width="310" height="12" rx="6" fill="#ffffff" opacity="0.10" />

  <rect x="1020" y="420" width="360" height="16" rx="8" fill="url(#accent)" opacity="0.55" />
  <rect x="1020" y="460" width="280" height="12" rx="6" fill="#ffffff" opacity="0.10" />

  <text x="180" y="735" fill="#ffffff" opacity="0.86" font-family="ui-sans-serif, system-ui, -apple-system, Segoe UI" font-size="26" font-weight="600">Projet #1 — ML Classique (Churn)</text>
  <text x="180" y="770" fill="#ffffff" opacity="0.55" font-family="ui-sans-serif, system-ui, -apple-system, Segoe UI" font-size="18">Classification • Validation • Métriques business (ROC-AUC/F1)</text>
</svg>
